# xmcd
#
# Track frame offsets: 
#        150
#        20316
#        35350
#        51329
#        73036
#        93952
#        111743
#        127375
#        144564
#        157315
#        177007
#
# Disc length: 2567 seconds
#
# Revision: 0
# Processed by: cddbd v1.5.2PL0 Copyright (c) Steve Scherf et al.
# Submitted via: ExactAudioCopy v1.0b3
#
DISCID=a40a050b
DTITLE=Tiny Lies, The - The Oaks They Will Bow
DYEAR=2013
DGENRE=New Zealand: Country/Blues
TTITLE0=Please Don't Ask for More
TTITLE1=Forgiveness
TTITLE2=The Walls Came Down
TTITLE3=Bag of Bones
TTITLE4=Down By the River
TTITLE5=Old Heart
TTITLE6=The Oaks They Will Bow
TTITLE7=Two Pale Moons
TTITLE8=So Far Away
TTITLE9=Learn to Climb
TTITLE10=Tonight
EXTD=
EXTT0=
EXTT1=
EXTT2=
EXTT3=
EXTT4=
EXTT5=
EXTT6=
EXTT7=
EXTT8=
EXTT9=
EXTT10=
PLAYORDER=
